<svg width="419" height="416" viewBox="0 0 419 416" fill="none" xmlns="http://www.w3.org/2000/svg">
<g clip-path="url(#clip0)">
<path d="M278.197 416H22.8297C16.7769 415.993 10.9741 413.586 6.69418 409.306C2.41427 405.026 0.00683219 399.223 0 393.17V22.8296C0.00683219 16.7769 2.41427 10.9741 6.69418 6.6942C10.9741 2.41429 16.7769 0.00683219 22.8297 0H278.197C284.25 0.00682372 290.053 2.41428 294.333 6.69419C298.613 10.9741 301.02 16.7769 301.027 22.8296V393.17C301.02 399.223 298.613 405.026 294.333 409.306C290.053 413.586 284.25 415.993 278.197 416Z" fill="#3F3D56"/>
<path d="M278.646 401.434H22.3793C20.5135 401.432 18.7247 400.69 17.4054 399.371C16.0861 398.051 15.3439 396.262 15.3418 394.397V21.6033C15.3439 19.7375 16.0861 17.9487 17.4054 16.6294C18.7247 15.3101 20.5135 14.5679 22.3793 14.5658H278.646C280.512 14.5679 282.301 15.3101 283.62 16.6294C284.939 17.9487 285.681 19.7375 285.684 21.6033V394.397C285.681 396.262 284.939 398.051 283.62 399.371C282.301 400.69 280.512 401.432 278.646 401.434Z" fill="white"/>
<path d="M149.542 8.93366C150.614 8.93366 151.484 8.06415 151.484 6.99155C151.484 5.91895 150.614 5.04944 149.542 5.04944C148.469 5.04944 147.6 5.91895 147.6 6.99155C147.6 8.06415 148.469 8.93366 149.542 8.93366Z" fill="white"/>
<path d="M218.871 172.222L210.388 146.814L210.244 146.372L245.971 123.805L247.87 126.364L257.82 139.763L254.183 150.599L244.782 178.598L244.37 179.829L261.78 192.772C262.47 194.045 263.043 195.205 263.509 196.271C268.706 208.114 261.013 207.576 261.013 207.576L225.606 192.4L218.871 172.222Z" fill="#FFB7B7"/>
<path d="M237.614 176.952L236.053 172.275L228.393 149.314L226.797 144.527L225.457 140.522L242.926 129.484L261.184 117.955L273.033 133.913L269.442 144.613L267.696 149.812L264.998 157.853L259.583 173.978L276.992 186.922C278.31 189.232 279.35 191.689 280.091 194.243C280.393 195.309 280.537 196.414 280.517 197.521C280.545 198.088 280.453 198.655 280.246 199.184C280.039 199.713 279.723 200.191 279.317 200.589C278.911 200.986 278.426 201.293 277.893 201.489C277.361 201.685 276.792 201.766 276.226 201.726L240.819 186.55L237.614 176.952Z" fill="#FFB7B7"/>
<path opacity="0.15" d="M235.953 177.989L233.898 156.329L244.137 150.777L244.807 152.013L235.385 157.122L237.29 177.201L258.224 191.537L257.43 192.696L235.953 177.989Z" fill="black"/>
<path opacity="0.15" d="M258.286 177.263L257.451 178.393L278.576 194.002L279.412 192.871L258.286 177.263Z" fill="black"/>
<path d="M257.028 198.494L150.754 123.784L43.3945 197.798L149.153 242.457L257.028 198.494Z" fill="white"/>
<path d="M180.941 135.081L216.727 100.091L280.73 95.7671L360.288 171.739L418.255 203.461L401.924 251.484L331.96 218.272C317.715 217.226 308.55 212.499 302.753 207.528C300.76 205.821 298.963 203.897 297.397 201.791C295.681 199.559 294.343 197.06 293.435 194.395L264.998 157.854L259.135 150.313L255.338 145.433L242.927 129.484L242.033 128.338L220.947 127.779L209.973 142.186L202.265 152.297C202.085 155.857 200.799 159.273 198.586 162.069C191.674 170.477 177.658 168.835 177.658 168.835L180.941 135.081Z" fill="#FFB7B7"/>
<path d="M43.8052 197.729H43.8818L87.7737 216.471L147.827 242.114C148.061 242.213 148.313 242.264 148.568 242.266C148.822 242.267 149.075 242.218 149.31 242.122L211.268 216.417L256.238 197.76L256.307 197.729H256.383C257.093 197.73 257.773 198.012 258.275 198.514C258.776 199.015 259.059 199.696 259.059 200.405V316.635C259.059 317.345 258.776 318.025 258.275 318.526C257.773 319.028 257.093 319.31 256.383 319.311H43.8052C43.0957 319.31 42.4154 319.028 41.9136 318.526C41.4119 318.025 41.1297 317.345 41.1289 316.635V200.405C41.1297 199.696 41.4119 199.015 41.9136 198.514C42.4154 198.012 43.0957 197.73 43.8052 197.729Z" fill="white"/>
<path d="M43.613 198.494C43.691 198.494 43.7672 198.47 43.8312 198.425L149.569 124.786C149.891 124.563 150.273 124.444 150.665 124.445C151.056 124.445 151.438 124.566 151.759 124.79L256.736 198.424C256.819 198.482 256.921 198.505 257.021 198.487C257.121 198.47 257.209 198.413 257.267 198.33C257.326 198.247 257.348 198.145 257.331 198.045C257.314 197.945 257.257 197.857 257.175 197.798L152.198 124.164C151.749 123.85 151.214 123.681 150.666 123.681C150.118 123.68 149.583 123.847 149.132 124.159L43.3942 197.798C43.3274 197.844 43.2773 197.911 43.251 197.988C43.2247 198.065 43.2236 198.148 43.2481 198.226C43.2725 198.304 43.321 198.371 43.3867 198.42C43.4523 198.468 43.5316 198.494 43.613 198.494L43.613 198.494Z" fill="#3F3D56"/>
<path d="M250.737 201.104L150.561 126.861L49.625 206.387L145.4 263.163L197.397 251.311L250.737 201.104Z" fill="#E6E6E6"/>
<path d="M193.008 298.232H242.498C243.11 298.232 243.698 297.989 244.132 297.556C244.566 297.123 244.81 296.536 244.811 295.923C244.812 295.31 244.569 294.722 244.137 294.288C243.704 293.854 243.117 293.609 242.505 293.608H193.008C192.395 293.607 191.808 293.85 191.374 294.283C190.94 294.716 190.696 295.303 190.695 295.916C190.694 296.529 190.937 297.117 191.369 297.551C191.802 297.985 192.389 298.23 193.001 298.232H193.008Z" fill="#FDD835"/>
<path d="M224.743 288.291H242.498C243.111 288.291 243.699 288.048 244.133 287.615C244.566 287.183 244.81 286.595 244.811 285.982C244.812 285.37 244.57 284.782 244.137 284.347C243.705 283.913 243.118 283.668 242.505 283.667H224.743C224.13 283.667 223.542 283.91 223.108 284.343C222.675 284.775 222.431 285.363 222.43 285.976C222.429 286.588 222.671 287.176 223.104 287.611C223.536 288.045 224.123 288.289 224.736 288.291H224.743Z" fill="#FDD835"/>
<path d="M149.152 242.456C149.528 242.457 149.901 242.384 150.249 242.241L212.031 216.606V136.364C212.03 135.655 211.747 134.975 211.246 134.473C210.744 133.971 210.064 133.689 209.354 133.688H90.8306C90.1211 133.689 89.4408 133.971 88.9391 134.473C88.4374 134.975 88.1551 135.655 88.1543 136.364V216.662L88.2704 216.712L148.022 242.229C148.38 242.379 148.764 242.457 149.152 242.456Z" fill="white"/>
<path d="M147.948 242.405L87.9648 216.789V136.364C87.9657 135.604 88.2681 134.875 88.8057 134.338C89.3432 133.8 90.0721 133.498 90.8323 133.497H209.356C210.116 133.498 210.845 133.8 211.383 134.338C211.92 134.875 212.223 135.604 212.223 136.364V216.734L150.323 242.418C149.561 242.728 148.707 242.723 147.948 242.405H147.948ZM211.459 136.364C211.458 135.807 211.236 135.272 210.842 134.878C210.448 134.484 209.913 134.262 209.356 134.261H90.8323C90.2748 134.262 89.7403 134.484 89.3461 134.878C88.9519 135.272 88.7301 135.807 88.7295 136.364V216.284L148.247 241.701C148.817 241.94 149.459 241.944 150.032 241.711L211.459 216.223L211.459 136.364Z" fill="#3F3D56"/>
<path d="M41.7012 200.405V316.635C41.702 317.345 41.9842 318.025 42.4859 318.526C42.9877 319.028 43.6679 319.31 44.3775 319.311H256.955C257.665 319.31 258.345 319.028 258.847 318.526C259.349 318.025 259.631 317.345 259.632 316.635V200.405C259.631 199.696 259.349 199.015 258.847 198.514C258.345 198.012 257.665 197.73 256.955 197.729H256.879L256.81 197.76L211.84 216.417L149.883 242.122C149.647 242.218 149.395 242.267 149.14 242.266C148.886 242.264 148.634 242.213 148.399 242.114L88.346 216.471L44.4541 197.729H44.3775C43.6679 197.73 42.9877 198.012 42.4859 198.514C41.9842 199.015 41.702 199.696 41.7012 200.405ZM42.4659 200.405C42.467 199.912 42.6583 199.438 43.0002 199.082C43.342 198.726 43.8079 198.515 44.301 198.494L88.346 217.301L148.097 242.818C148.762 243.097 149.509 243.101 150.177 242.829L211.84 217.243L257.028 198.494C257.522 198.513 257.989 198.723 258.332 199.08C258.675 199.436 258.866 199.911 258.867 200.405V316.635C258.867 317.142 258.665 317.628 258.307 317.986C257.948 318.345 257.462 318.546 256.955 318.547H44.3775C43.8706 318.546 43.3845 318.345 43.026 317.986C42.6675 317.628 42.4661 317.142 42.4659 316.635V200.405Z" fill="#3F3D56"/>
<path d="M101.207 163.683H143.264C144.075 163.683 144.853 163.361 145.427 162.787C146 162.213 146.323 161.435 146.323 160.624C146.323 159.813 146 159.035 145.427 158.461C144.853 157.888 144.075 157.565 143.264 157.565H101.207C100.396 157.565 99.6179 157.888 99.0443 158.461C98.4707 159.035 98.1484 159.813 98.1484 160.624C98.1484 161.435 98.4707 162.213 99.0443 162.787C99.6179 163.361 100.396 163.683 101.207 163.683Z" fill="#FDD835"/>
<path d="M101.233 150.683H121.496C122.307 150.683 123.085 150.361 123.659 149.788C124.233 149.214 124.555 148.436 124.555 147.625C124.555 146.814 124.233 146.036 123.659 145.462C123.085 144.888 122.307 144.566 121.496 144.566H101.233C100.421 144.566 99.6433 144.888 99.0697 145.462C98.4961 146.036 98.1738 146.814 98.1738 147.625C98.1738 148.436 98.4961 149.214 99.0697 149.788C99.6433 150.361 100.421 150.683 101.233 150.683Z" fill="#FDD835"/>
<path d="M118.639 194.269H182.871C183.682 194.269 184.46 193.947 185.034 193.374C185.607 192.8 185.93 192.022 185.93 191.211C185.93 190.4 185.607 189.622 185.034 189.048C184.46 188.474 183.682 188.152 182.871 188.152H118.639C117.828 188.152 117.05 188.474 116.476 189.048C115.902 189.622 115.58 190.4 115.58 191.211C115.58 192.022 115.902 192.8 116.476 193.374C117.05 193.947 117.828 194.269 118.639 194.269Z" fill="#CCCCCC"/>
<path d="M118.639 208.416H182.871C183.682 208.416 184.46 208.094 185.034 207.52C185.607 206.946 185.93 206.168 185.93 205.357C185.93 204.546 185.607 203.768 185.034 203.194C184.46 202.621 183.682 202.298 182.871 202.298H118.639C117.828 202.298 117.05 202.621 116.476 203.194C115.902 203.768 115.58 204.546 115.58 205.357C115.58 206.168 115.902 206.946 116.476 207.52C117.05 208.094 117.828 208.416 118.639 208.416Z" fill="#CCCCCC"/>
<path opacity="0.1" d="M267.695 149.812L280.453 149.074L331.426 211.894L313.418 209.14L302.752 207.528C300.759 205.821 298.962 203.897 297.395 201.791L285.544 198.273L280.09 194.243C280.432 195.552 267.695 149.812 267.695 149.812Z" fill="black"/>
<path d="M186.149 147.813C186.514 145.463 187.795 143.354 189.711 141.945C191.627 140.536 194.022 139.943 196.373 140.295L209.973 142.186L226.798 144.527L239.8 146.335L255.338 145.433L269.442 144.613L277.775 144.132L333.18 212.414L285.545 198.273L280.091 194.243L256.212 176.606C256.212 176.606 248.388 175.164 236.054 172.275C234.219 171.839 213.456 166.629 203.703 163.795C201.813 163.245 200.118 162.669 198.586 162.069C187.712 157.788 185.537 152.301 186.149 147.813Z" fill="#FFB7B7"/>
<path opacity="0.15" d="M193.938 156.343C193.986 156.337 198.84 155.733 200.912 152.178C202.308 149.783 202.168 146.558 200.495 142.593L201.79 142.047C203.646 146.447 203.757 150.097 202.121 152.895C199.687 157.058 194.325 157.713 194.098 157.739L193.938 156.343Z" fill="black"/>
<path opacity="0.15" d="M243.019 146.851L243.016 145.446L268.007 145.406L241.66 128.933L242.405 127.741L272.894 146.803L243.019 146.851Z" fill="black"/>
</g>
<defs>
<clipPath id="clip0">
<rect width="418.254" height="416" fill="white"/>
</clipPath>
</defs>
</svg>
