<svg width="65" height="66" viewBox="0 0 65 66" fill="none" xmlns="http://www.w3.org/2000/svg">
<path d="M63.6794 23.0173C62.3786 19.1327 60.6522 15.4698 57.9957 12.317C54.8273 8.55802 51.1781 5.3915 46.6795 3.27461C40.5073 0.370985 34.0644 -0.67471 27.3194 0.431805C21.5239 1.38333 16.3641 3.78274 11.8498 7.53783C6.9195 11.6402 3.46263 16.749 1.50268 22.8642C0.770891 25.1459 0.37851 27.4943 0.129348 29.8702C0.0685294 30.4548 0.0371389 31.0415 0.00182461 31.6281C-0.0158325 31.9027 0.0940342 32.0146 0.358891 31.8576C0.578625 31.7242 0.808168 31.6006 1.01221 31.4436C2.47382 30.3234 3.81184 29.0658 4.9576 27.6238C6.56244 25.607 7.89065 23.3939 9.3091 21.2476C10.137 19.992 10.8806 18.6579 11.9675 17.6083C15.5068 14.1906 19.6935 12.8291 24.5453 13.9493C28.8909 14.9538 33.1678 16.233 37.4801 17.3689C38.2904 17.5828 38.7161 17.9006 38.7789 18.7658C38.8279 19.4486 39.1085 20.0744 39.595 20.6002C40.5976 21.6812 42.3947 22.5366 44.2899 21.4242C44.5606 21.2672 44.7235 21.2829 44.9608 21.5301C46.8678 23.5097 48.2411 25.8424 49.4791 28.2673C50.0206 29.3267 50.0441 30.3901 49.4889 31.4417C48.8336 32.6855 48.8768 33.9392 49.328 35.2301C49.6302 36.0934 50.0167 36.9252 50.2305 37.8198C50.4738 38.8381 50.4051 39.7876 49.6498 40.5861C48.8905 41.3885 48.0096 42.032 47.0091 42.497C45.9948 42.9679 45.0472 42.8188 44.1623 42.1498C43.7562 41.8437 43.4129 41.4729 43.0441 41.1276C42.2711 40.4037 41.3647 40.0093 40.3033 40.027C39.3753 40.0407 38.5395 39.766 37.7842 39.254C36.0616 38.0808 34.7334 36.5367 33.6701 34.7651C32.7166 33.178 32.4223 31.3887 32.1849 29.5877C32.0829 28.8206 32.0142 28.0456 31.7788 27.3001C31.7003 27.049 31.5277 26.8979 31.2648 26.8979C30.9921 26.8999 30.7959 27.0509 30.7056 27.306C30.6566 27.4472 30.6409 27.6042 30.6331 27.7553C30.6075 28.2614 30.6429 28.7676 30.7017 29.2698C30.8959 30.8943 31.1196 32.5247 31.7474 34.0392C32.0849 34.8554 32.1398 35.6088 31.9142 36.4288C31.2766 38.7498 31.6042 40.9608 32.6617 43.0993C33.1031 43.992 33.5112 44.9043 33.8506 45.8421C34.4352 47.4548 34.0546 48.9497 32.7813 50.1033C32.2477 50.5859 31.6591 50.996 31.0627 51.3962C29.5775 52.3909 28.3337 53.6191 27.3763 55.1376C26.9761 55.7732 26.5562 56.401 26.0402 56.9543C25.2888 57.7606 24.3824 57.8607 23.4878 57.2074C22.6677 56.611 22.0379 55.834 21.5534 54.9473C21.212 54.3234 21.2551 53.6779 21.5573 53.0501C21.9654 52.1967 22.4911 51.4178 23.1464 50.7331C23.9155 49.9346 24.8847 49.4186 25.8342 48.8811C26.3875 48.5691 26.9447 48.265 27.4194 47.8354C28.1983 47.131 28.1493 46.0853 27.3076 45.4477C27.0349 45.2398 26.7289 45.0907 26.4091 44.969C25.7185 44.71 25.02 44.4687 24.3334 44.198C22.1949 43.3563 20.6293 41.9241 19.7798 39.7582C19.4796 38.993 19.1461 38.2416 18.8459 37.4785C18.4143 36.3876 17.9964 35.2909 17.4981 34.2276C17.4177 34.0549 17.3313 33.8862 17.1332 33.8234C16.8919 33.7469 16.6643 33.7705 16.474 33.947C16.2915 34.1177 16.2111 34.3237 16.2758 34.5827C16.4838 35.391 16.7663 36.1758 17.0782 36.9448C17.9356 39.0558 18.5026 41.312 20.1035 43.0581C20.333 43.3073 20.2742 43.4054 19.9132 43.4937C17.0822 44.1784 14.2845 44.9671 11.5712 46.0363C11.2435 46.1658 10.91 46.2835 10.5569 46.3208C10.1704 46.36 10.0841 46.2737 10.0075 45.9029C9.60927 43.9351 8.92849 42.0674 7.94558 40.3134C7.83571 40.1192 7.70819 39.9308 7.51788 39.8033C7.26676 39.6346 6.98228 39.5816 6.72135 39.7405C6.48004 39.8877 6.54085 40.1506 6.5899 40.384C6.71154 40.9746 6.98032 41.5121 7.22556 42.0575C8.15746 44.1391 8.73427 46.3012 8.72838 48.5985C8.72446 50.2995 8.33796 51.9299 7.81413 53.5327C7.76312 53.6877 7.73369 53.8015 7.87691 53.9388C9.13253 55.1297 10.3214 56.3873 11.6398 57.5115C16.5701 61.7119 22.2616 64.1937 28.6731 65.0158C32.0966 65.4533 35.5064 65.2924 38.8887 64.6018C44.5645 63.4423 49.6204 61.0037 53.9836 57.1799C58.1959 53.4896 61.2192 48.9693 63.1614 43.7232C63.9462 41.6043 64.5583 39.4364 64.8408 37.1881C65.0154 35.8089 64.9546 34.4159 64.9703 33.0289C64.9703 32.9229 64.9664 32.817 64.9703 32.711C65.1155 29.4033 64.7349 26.1681 63.6794 23.0173ZM44.696 18.3989C44.6293 19.376 43.6483 20.3196 42.6713 20.4079C41.6727 20.5001 41.0115 20.0312 40.4622 19.2975C40.1189 18.8384 40.1385 18.2969 40.1993 17.7711C40.4406 15.6935 41.6962 14.4045 43.5071 13.5471C44.5645 13.0469 45.6848 13.0096 46.8188 13.0253C48.0744 13.0508 49.332 13.0881 50.5601 13.4078C50.9015 13.4961 51.2291 13.6315 51.492 13.8807C51.8099 14.1808 51.7667 14.4947 51.3782 14.7007C51.1252 14.8342 50.8485 14.8852 50.564 14.893C49.1122 14.9283 47.7311 15.2913 46.393 15.821C45.2375 16.2762 44.7745 17.2316 44.696 18.3989ZM51.9276 18.0026C51.7078 18.1498 51.4665 18.2224 51.2017 18.2381C50.4071 18.2793 49.6694 18.5304 48.9317 18.8149C48.094 19.1405 47.68 19.7605 47.5172 20.5963C47.4682 20.8494 47.4034 21.0985 47.3053 21.3379C47.2308 21.5242 47.1268 21.5654 46.96 21.4379C46.5323 21.1142 46.191 20.714 45.9065 20.2667C45.8064 20.1117 45.8084 19.939 45.8653 19.7566C46.0497 19.1778 46.2302 18.5971 46.291 17.983C46.3303 17.5769 46.6461 17.3415 46.9757 17.1394C47.5721 16.7764 48.4354 16.5763 49.4144 16.5763C50.0755 16.5626 50.723 16.6803 51.3665 16.8235C51.547 16.8647 51.7255 16.9373 51.8883 17.0276C52.42 17.3179 52.4318 17.6632 51.9276 18.0026Z" fill="white"/>
<path d="M43.9483 28.593C44.5232 29.1914 45.1373 29.7074 45.6258 30.345C45.8259 30.6079 46.0005 30.8845 46.1025 31.2023C46.3242 31.8988 45.9201 32.6738 45.2216 32.8896C44.739 33.0387 44.2662 32.8425 43.9581 32.3638C43.7423 32.0303 43.6521 31.6536 43.5972 31.2691C43.4657 30.3607 43.4657 29.4661 43.9483 28.593Z" fill="white"/>
<path d="M45.6827 39.8269C45.6729 38.7282 46.6381 38.0278 47.6348 38.379C47.9683 38.4967 48.2881 38.6419 48.5118 38.9362C48.6 39.0519 48.6648 39.1775 48.5785 39.3246C48.4941 39.4659 48.3568 39.4855 48.2116 39.4718C47.9467 39.4463 47.727 39.3089 47.4955 39.1971C47.0109 38.9617 46.748 39.0813 46.6067 39.6013C46.5695 39.7366 46.5597 39.8798 46.5165 40.0133C46.4616 40.1839 46.4459 40.4017 46.183 40.3958C45.922 40.3899 45.7729 40.2467 45.7121 40.0015C45.6925 39.9309 45.6866 39.8602 45.6827 39.8269Z" fill="white"/>
</svg>
