<svg width="200" height="30" viewBox="0 0 200 30" fill="none" xmlns="http://www.w3.org/2000/svg">
<path d="M121.349 18.8069C121.448 16.5556 121.542 14.5769 121.622 12.5934C121.696 10.6941 121.785 8.78985 121.815 6.89056C121.825 6.31533 121.994 6.1368 122.574 6.12688C123.789 6.112 125.014 6.0525 126.224 5.92853C126.908 5.8591 127.057 6.05746 127.052 6.72692C127.027 13.1785 127.037 19.6252 127.037 26.0768C127.037 26.9396 127.017 27.8025 127.047 28.6604C127.062 29.0869 126.908 29.1761 126.496 29.2257C124.771 29.4489 123.546 28.8389 122.628 27.3363C120.61 24.0138 118.513 20.7409 116.445 17.4482C116.326 17.2597 116.192 17.0763 116.068 16.8928C115.969 16.9027 115.874 16.9126 115.775 16.9225C115.775 18.5392 115.795 20.1558 115.77 21.7674C115.736 23.999 115.646 26.2255 115.636 28.4521C115.631 29.0819 115.443 29.2455 114.828 29.2208C113.583 29.1712 112.329 29.1712 111.084 29.2208C110.415 29.2505 110.191 29.0918 110.196 28.3678C110.226 21.4154 110.211 14.4579 110.216 7.50547C110.216 5.69545 110.221 5.71033 112.021 6.05746C112.81 6.20622 113.35 6.67237 113.821 7.26744C115.483 9.37004 116.792 11.7057 118.25 13.9422C119.246 15.4795 120.218 17.0316 121.349 18.8069Z" fill="white"/>
<path d="M154.167 16.5704C153.82 18.8465 153.83 20.9838 153.815 23.1212C153.8 24.9064 153.795 26.6867 153.825 28.4719C153.835 29.0124 153.741 29.2653 153.111 29.2356C151.956 29.181 150.79 29.1959 149.635 29.2306C149.094 29.2455 148.866 29.1463 148.866 28.5165C148.891 21.202 148.886 13.8876 148.871 6.57808C148.871 6.0921 148.98 5.94829 149.506 5.93837C150.989 5.90862 152.04 6.54833 152.878 7.72856C155.07 10.8329 156.979 14.1256 159.121 17.2597C159.464 17.7605 159.826 18.2465 160.307 18.9209C160.5 16.9423 160.535 15.2067 160.535 13.4661C160.54 11.2643 160.55 9.06747 160.525 6.8657C160.52 6.34997 160.624 6.13673 161.199 6.13177C162.474 6.1169 163.753 6.03755 165.027 5.93341C165.543 5.89374 165.746 5.96317 165.746 6.5632C165.727 13.9074 165.727 21.2516 165.742 28.5909C165.742 29.1066 165.568 29.1711 165.092 29.2356C163.322 29.4835 162.176 28.7099 161.269 27.2569C159.275 24.0584 157.222 20.8995 155.179 17.7308C154.941 17.3489 154.723 16.9175 154.167 16.5704Z" fill="white"/>
<path d="M185.562 17.3144C185.517 14.4927 185.626 11.0413 185.75 7.59482C185.8 6.21127 185.815 6.20135 187.198 6.10217C191.265 5.80959 195.341 6.00299 199.412 5.93356C199.873 5.92364 200.037 6.0377 199.993 6.5336C199.883 7.65928 199.814 8.78496 199.769 9.91561C199.75 10.466 199.566 10.6595 198.981 10.6545C196.66 10.6297 194.344 10.6842 192.023 10.6694C191.483 10.6644 191.215 10.7537 191.23 11.3835C191.245 12.0926 191.116 12.8067 191.086 13.5158C191.037 14.6465 191.225 14.8646 192.39 14.9142C194.23 14.9936 196.075 15.058 197.92 15.063C198.564 15.063 198.802 15.2217 198.792 15.9011C198.783 16.8185 198.872 17.7408 198.971 18.6583C199.035 19.2384 198.822 19.3475 198.287 19.3426C196.115 19.3128 193.943 19.3525 191.776 19.3178C191.2 19.3079 191.012 19.4566 191.032 20.0517C191.076 21.3609 191.076 22.67 191.032 23.9792C191.012 24.5941 191.166 24.7826 191.81 24.7726C194.215 24.733 196.625 24.7974 199.03 24.7379C199.859 24.7181 200.042 24.9809 199.988 25.7396C199.923 26.6868 199.953 27.6439 199.978 28.596C199.988 29.0374 199.888 29.2308 199.392 29.2308C194.959 29.2159 190.531 29.2109 186.098 29.2308C185.443 29.2357 185.572 28.839 185.572 28.472C185.562 24.9561 185.562 21.4501 185.562 17.3144Z" fill="white"/>
<path d="M147.602 28.2785C145.182 21.46 142.801 14.6364 140.401 7.81788C139.677 5.75495 139.672 5.76488 137.49 5.96323C136.687 6.03762 136.156 6.34507 135.864 7.18809C133.29 14.5075 130.677 21.8121 128.068 29.1414C129.125 29.1414 130.072 29.1811 131.014 29.1364C133.717 29.0026 133.741 28.9926 134.451 26.4189C134.604 25.8536 134.857 25.7495 135.373 25.7594C136.677 25.7891 137.986 25.7644 139.295 25.7644C141.244 25.7644 141.274 25.7594 141.8 27.5942C142.067 28.5315 142.613 28.9579 143.57 29.0323C144.696 29.1166 145.821 29.1811 146.952 29.1811C147.612 29.1811 147.865 29.0125 147.602 28.2785ZM139.127 21.1476C138.695 21.2219 138.254 21.2815 137.927 21.331C137.515 21.3013 137.218 21.2963 136.925 21.2517C136.474 21.1872 136.275 20.9641 136.36 20.4632C136.647 18.7127 137.039 16.987 137.614 15.3059C137.669 15.1423 137.639 14.8298 137.937 14.8546C138.115 14.8695 138.195 15.0728 138.264 15.2365C138.983 16.9374 139.31 18.7375 139.628 20.5426C139.692 20.9046 139.464 21.0881 139.127 21.1476Z" fill="white"/>
<path d="M86.8746 17.5226C86.8746 13.9224 86.8895 10.3222 86.8597 6.72201C86.8548 6.10214 87.0184 5.92362 87.6482 5.92858C91.4517 5.95833 95.2602 5.95337 99.0637 5.92858C99.6539 5.92362 99.8324 6.08726 99.8125 6.67738C99.7679 7.83777 99.7729 8.99817 99.8125 10.1586C99.8274 10.6793 99.6539 10.8082 99.153 10.7983C97.3083 10.7685 95.4635 10.8479 93.6188 10.7586C92.7609 10.7189 92.4782 11.0065 92.4237 11.795C92.3741 12.5339 92.2005 13.2629 92.141 14.0018C92.0418 15.2365 92.4336 15.7176 93.6833 15.7721C95.1362 15.8366 96.5942 15.8366 98.0521 15.8118C98.6125 15.8019 98.8455 15.9209 98.8108 16.5358C98.7563 17.5425 98.7662 18.559 98.8108 19.5707C98.8307 20.0963 98.7116 20.2798 98.1463 20.2947C96.3611 20.3343 94.5808 20.4782 92.8006 20.5228C92.1906 20.5377 92.0716 20.7757 92.0815 21.3212C92.1311 23.6717 92.1063 26.0223 92.1807 28.3679C92.2055 29.1167 91.9476 29.2506 91.2831 29.2258C90.1227 29.1762 88.9623 29.1712 87.8019 29.2307C87.0829 29.2654 86.8449 29.0869 86.8548 28.3232C86.8994 24.7181 86.8746 21.1228 86.8746 17.5226Z" fill="white"/>
<path d="M168.231 17.5969C168.191 15.896 168.385 14.3041 168.821 12.752C170.448 6.98471 175.908 4.42093 181.481 6.79132C182.161 7.07894 182.81 7.4459 183.495 7.72856C183.872 7.88725 183.976 8.03601 183.797 8.44761C183.247 9.72702 182.721 11.0163 182.235 12.3206C182.037 12.8462 181.848 12.7867 181.496 12.4892C180.742 11.8594 179.949 11.304 178.967 11.0511C177.504 10.6791 176.26 11.0163 175.243 12.1172C172.773 14.7901 172.699 20.5375 175.089 23.3046C176.334 24.7477 178.903 24.8915 180.519 23.6071C181.734 22.6451 181.888 22.6649 182.567 24.0485C182.999 24.9262 183.351 25.8387 183.787 26.7114C183.976 27.0982 183.872 27.2619 183.559 27.4999C182.181 28.5512 180.584 28.9132 178.913 29.1116C174.45 29.6422 171.559 28.3578 169.763 25.0155C169.039 23.6666 168.653 22.2087 168.439 20.7012C168.286 19.6499 168.176 18.5837 168.231 17.5969Z" fill="white"/>
<path d="M107.722 17.6565C107.722 21.2518 107.707 24.852 107.737 28.4472C107.742 29.072 107.578 29.2506 106.953 29.2258C105.679 29.1762 104.395 29.1712 103.12 29.2258C102.421 29.2555 102.232 29.0522 102.232 28.3431C102.257 21.4948 102.247 14.6415 102.242 7.79315C102.242 5.94842 102.242 5.94842 104.082 5.94346C104.975 5.94346 105.867 5.98809 106.755 5.92363C107.499 5.86908 107.757 6.03768 107.742 6.86583C107.692 10.466 107.722 14.0613 107.722 17.6565Z" fill="white"/>
<path d="M66.5971 28.2884C65.2384 25.9875 63.8648 23.6964 62.5011 21.4004C61.5589 19.8136 61.5638 19.8136 62.8829 18.5887C63.2499 18.2465 63.6168 17.8945 63.9639 17.5324C65.6748 15.7472 66.2897 13.6645 65.774 11.2296C65.1541 8.28896 63.6912 6.75168 60.9787 6.33513C58.6479 5.97313 56.3024 5.94833 53.9518 5.97312C53.2972 5.98304 53.084 6.21115 53.089 6.86573C53.1137 10.1634 53.0989 13.4611 53.0989 16.7589H53.1534C53.1534 18.7474 53.1038 20.7409 53.1633 22.7344C53.2228 24.6634 53.2129 26.5974 53.5154 28.5116C53.5501 28.7447 53.5204 29.1463 53.8625 29.1513C54.2047 29.1562 54.175 28.7843 54.2146 28.5314C54.4031 27.4057 54.3039 26.2801 54.2543 25.1494C54.1998 23.8154 54.0708 22.4765 54.2989 21.1475C54.4973 20.002 54.9138 19.6053 56.0792 19.5507C56.9966 19.5061 57.9239 19.5855 58.8413 19.5309C59.4315 19.4962 59.7389 19.7243 60.0265 20.2103C61.4845 22.66 62.868 25.1494 64.4747 27.5099C64.8417 28.0504 65.2186 28.581 65.7343 28.9976C66.0765 29.2703 66.498 29.3397 66.8005 29.0719C67.0732 28.829 66.736 28.5265 66.5971 28.2884ZM58.8017 18.2515C57.5223 18.2515 56.2478 18.1374 54.9734 18.1226C54.4874 18.1176 54.3684 17.9292 54.3733 17.4878C54.3932 16.0348 54.3832 14.5819 54.3832 13.1239C54.2345 11.6115 54.1948 10.099 54.2989 8.58154C54.3386 8.04101 54.5667 7.76331 55.0676 7.66413C57.3834 7.21286 59.6992 7.23765 61.906 8.08068C64.083 8.91378 65.0896 11.7999 64.2367 14.3141C63.3094 17.0713 61.7027 18.2515 58.8017 18.2515Z" fill="white"/>
<path d="M19.3677 17.6217C19.3677 13.9967 19.3776 10.3667 19.3577 6.74174C19.3528 6.18634 19.5015 5.96815 20.1065 5.9731C23.3497 5.9979 26.5929 5.95327 29.8162 6.32519C30.2972 6.37974 31.0906 6.32519 31.0906 6.82605C31.0906 7.39137 30.2774 7.27235 29.8261 7.31202C27.1879 7.55501 24.5398 7.55997 21.8967 7.62444C20.6818 7.65419 20.6818 7.66411 20.6371 8.91377C20.5776 10.6395 20.5082 12.3602 20.4586 14.086C20.3991 16.0596 20.7611 16.4365 22.7546 16.4266C24.3911 16.4167 26.0226 16.3423 27.659 16.3324C28.2194 16.3274 28.7847 16.4167 29.3401 16.4911C29.6178 16.5307 29.8558 16.6845 29.8608 17.0068C29.8707 17.3242 29.6327 17.4779 29.3699 17.5622C28.5963 17.8101 27.788 17.83 26.9896 17.8696C25.12 17.9639 23.2456 18.0333 21.3711 18.068C20.8405 18.0779 20.657 18.2069 20.6471 18.7672C20.5975 21.5046 20.5231 24.2369 20.409 26.9693C20.3842 27.6239 20.6024 27.738 21.2074 27.7479C24.0291 27.7776 26.8557 27.8024 29.6674 28.1049C30.2079 28.1644 31.1452 28.1396 31.1204 28.6207C31.0857 29.2554 30.1683 29.1215 29.6327 29.1314C26.33 29.1909 23.0323 29.1761 19.7297 29.2257C19.1098 29.2356 19.1643 28.9083 19.1693 28.5066C19.1743 24.8767 19.1743 21.2467 19.1743 17.6217C19.2437 17.6217 19.3081 17.6217 19.3677 17.6217Z" fill="white"/>
<path d="M84.6821 28.3628C83.6259 25.2833 82.5646 22.2037 81.4737 19.1292C79.9413 14.805 78.3892 10.4857 76.8073 6.05737C76.3858 6.52847 76.2816 6.96982 76.1329 7.37646C75.1956 9.96999 74.2633 12.5635 73.3509 15.162C71.8533 19.4416 70.3606 23.7212 68.9027 28.0107C68.7837 28.3628 68.3771 28.9331 68.9672 29.176C69.5127 29.3992 69.8003 28.8487 70.0284 28.4372C70.2615 28.0256 70.44 27.5842 70.6036 27.1429C70.9656 26.1709 71.3574 25.2039 71.6301 24.2072C71.7938 23.617 72.1012 23.4931 72.6368 23.4832C75.2502 23.4286 77.8685 23.3641 80.4769 23.255C81.1216 23.2302 81.434 23.4088 81.6175 24.0336C81.8803 24.9113 82.2373 25.7643 82.5745 26.6172C82.877 27.3958 83.2391 28.1396 83.725 28.8239C83.9879 29.1959 84.3548 29.3446 84.7267 29.1413C85.1036 28.938 84.7615 28.6008 84.6821 28.3628ZM79.862 22.174C77.6057 22.3079 75.3493 22.3277 73.093 22.1988C72.7062 22.174 72.4682 22.0798 72.6269 21.5988C73.8021 17.9638 74.9427 14.314 76.3064 10.7436C76.3957 10.5056 76.5048 10.2477 76.8618 10.0196C77.3676 11.4676 77.8685 12.8809 78.3446 14.2992C79.1182 16.6051 79.9463 18.8912 80.5116 21.2615C80.6654 21.9062 80.467 22.1393 79.862 22.174Z" fill="white"/>
<path d="M49.6371 28.4868C49.5181 27.9661 49.409 27.4454 49.2503 26.9346C47.3113 20.8698 45.1641 14.8794 42.9772 8.89888C42.6747 8.07569 42.4268 7.21779 41.7821 6.34998C41.5837 6.77645 41.4399 7.06406 41.3159 7.3616C40.1258 10.2675 39.0745 13.2281 38.0629 16.1985C36.7041 20.2103 35.3652 24.227 34.0362 28.2438C33.942 28.5314 33.6048 28.9331 34.1354 29.1562C34.6065 29.3546 34.8495 29.0075 35.0528 28.6702C35.2313 28.3628 35.4148 28.0504 35.5388 27.7181C35.99 26.528 36.4413 25.3378 36.8479 24.1328C37.0017 23.6617 37.2298 23.4981 37.7306 23.4881C40.4928 23.4385 43.2549 23.3691 46.0121 23.2551C46.622 23.2303 46.8254 23.4485 46.9592 23.9939C47.2419 25.1097 47.589 26.2156 47.9312 27.3214C48.1048 27.8867 48.3428 28.4322 48.7197 28.9033C48.8982 29.1265 49.1461 29.2852 49.4189 29.181C49.7263 29.062 49.6966 28.7545 49.6371 28.4868ZM45.0748 22.2038C43.0516 22.2682 41.0333 22.3525 39.015 22.1839C37.8 22.0847 37.681 21.9112 38.0232 20.7508C39.0844 17.1109 40.2696 13.5058 41.7474 9.80637C42.5061 11.3337 42.9623 12.7768 43.4731 14.195C44.3062 16.5158 45.055 18.8614 45.7096 21.2368C45.8831 21.8517 45.8038 22.179 45.0748 22.2038Z" fill="white"/>
<path d="M1.40158 17.835C1.45613 19.9872 1.72887 22.2137 2.74545 24.2916C4.46621 27.7975 7.71928 29.0174 11.3046 27.4802C12.1228 27.1281 12.9262 26.7561 13.7444 26.4041C13.9626 26.3098 14.2106 26.2355 14.394 26.4785C14.5775 26.7214 14.5478 26.9793 14.404 27.2273C14.1709 27.6289 13.799 27.8818 13.3973 28.0752C11.0467 29.2059 8.57718 29.5728 6.03819 28.9331C3.45954 28.2835 1.83796 26.4834 1.03461 24.0486C-0.334066 19.8979 -0.348947 15.6778 1.01477 11.5272C2.18508 7.9617 5.40345 5.75497 8.84496 5.97812C10.6153 6.09218 12.2567 6.69717 13.7444 7.67904C14.0172 7.86252 14.2701 8.0708 14.4139 8.37826C14.5478 8.66092 14.6073 8.96837 14.3891 9.21632C14.1411 9.50394 13.8734 9.23119 13.67 9.12706C12.6237 8.57165 11.622 7.94682 10.4566 7.63937C7.24818 6.78147 4.55051 7.91211 2.94381 10.8429C1.77845 12.9802 1.44621 15.3208 1.40158 17.835Z" fill="white"/>
<path d="M75.7564 3.68213C76.2573 2.47214 76.7829 1.15306 77.9632 0.235655C78.2359 0.0224202 78.5434 -0.0271678 78.8855 0.0125038C79.3269 0.0620934 79.5054 0.300119 79.2823 0.667082C78.4789 1.99608 77.5119 3.19119 76.2771 4.14827C76.173 4.23257 75.9845 4.302 75.8754 4.26728C75.6672 4.1929 75.7465 3.97471 75.7564 3.68213Z" fill="white"/>
</svg>
